<?xml version="1.0" encoding="UTF-8" standalone="no"?>
<svg
   version="1.1"
   width="220"
   height="220"
   viewBox="0,0,220,220"
   id="svg3"
   sodipodi:docname="logo.svg"
   inkscape:version="1.4 (86a8ad7, 2024-10-11)"
   xmlns:inkscape="http://www.inkscape.org/namespaces/inkscape"
   xmlns:sodipodi="http://sodipodi.sourceforge.net/DTD/sodipodi-0.dtd"
   xmlns="http://www.w3.org/2000/svg"
   xmlns:svg="http://www.w3.org/2000/svg">
  <defs
     id="defs3">
    <clipPath
       clipPathUnits="userSpaceOnUse"
       id="clipPath37">
      <path
         id="path38"
         style="fill:#ff0000;fill-opacity:1;fill-rule:nonzero;stroke:none"
         d="m 130,70.19999 v 78.81641 c 0.43334,-0.0405 0.86357,-0.0984 1.29492,-0.13477 1.7813,-0.13908 3.56772,-0.17511 5.35352,-0.20508 2.26191,-0.0306 4.52307,-0.0344 6.78515,-0.0391 2.23353,-0.004 4.46765,-0.005 6.70118,-0.006 2.44689,-8.8e-4 4.89489,-0.002 7.34179,-0.002 3.33196,-1.1e-4 6.66219,1e-5 9.99414,0 2.451,0.0587 4.89433,-0.0272 7.33985,-0.17383 2.11475,-0.14165 4.2238,-0.35014 6.33398,-0.54492 2.11928,-0.20843 4.24731,-0.27871 6.375,-0.33203 2.82034,-0.0557 5.64211,-0.0593 8.46289,-0.0684 2.94161,-0.008 5.8826,-0.0101 8.82422,-0.0117 3.3104,-0.001 6.62125,-0.002 9.93164,-0.002 3.77707,0.0563 7.54736,0.28972 11.31445,0.55273 3.92682,0.37859 7.84949,0.77136 11.78711,1.01953 4.28281,0.20053 8.5654,0.42301 12.84961,0.5918 4.43125,0.16721 8.86498,0.24836 13.29883,0.30273 4.17917,0.0304 8.35478,0.0302 12.53125,0.19336 3.59717,0.16607 7.19669,0.27055 10.79688,0.33985 3.82555,0.0648 7.6525,0.0788 11.47851,0.0937 3.09333,-0.008 6.18823,0.0486 9.28125,-0.006 2.53297,-0.0727 5.06588,-0.13999 7.59961,-0.17969 2.77043,-0.0382 5.5399,-0.052 8.31055,-0.0625 1.82578,-0.039 3.65088,-0.10817 5.47265,-0.23438 2.08633,-0.1601 4.17815,-0.2212 6.26954,-0.26562 2.95616,-0.0499 5.91264,-0.0572 8.86914,-0.0664 1.80099,-0.002 3.60164,0.007 5.40234,0.008 V 70.19999 Z m 74.14648,146.11328 c -1.45208,0.004 -2.90028,0.0412 -4.32031,0.35938 -2.07864,0.55813 -4.17168,1.03899 -6.28906,1.42578 -2.14505,0.36894 -4.27766,0.80829 -6.42188,1.18164 -1.5894,0.25883 -3.18918,0.44485 -4.78906,0.62695 -1.53905,0.16696 -3.08627,0.23716 -4.63281,0.28906 -1.60324,0.0471 -3.20703,0.0623 -4.81055,0.0293 -2.12231,-0.11584 -4.23838,-0.32023 -6.35742,-0.48242 -2.36989,-0.25234 -4.7399,-0.50715 -7.11328,-0.72461 -2.44308,-0.1987 -4.88661,-0.38241 -7.33399,-0.51953 -1.77804,-0.0901 -3.55791,-0.14283 -5.33789,-0.17383 -1.34929,-0.0215 -2.69939,-0.0292 -4.04882,-0.0352 -0.17728,-0.001 -0.35397,-0.001 -0.53125,-0.002 -1.3874,-0.005 -0.23012,0.007 -0.23047,0.008 -0.055,0.0678 -0.1734,0.0282 -0.25977,0.041 -0.1741,0.0258 -0.34727,0.0491 -0.52148,0.0742 -0.95424,0.13562 -1.8881,0.33529 -2.83008,0.5332 -1.8581,0.37621 -3.75096,0.51908 -5.64063,0.61914 -0.89207,0.0413 -1.78498,0.0551 -2.67773,0.0742 v 70.5625 h 220 v -67.6543 c -1.00576,0.13546 -2.0083,0.29699 -3.01953,0.38282 -1.14893,0.0889 -2.30116,0.11544 -3.45117,0.18554 -1.5945,0.0704 -3.18846,0.17296 -4.76953,0.39649 -2.1102,0.35937 -4.22712,0.66632 -6.35547,0.89453 -2.75928,0.29602 -5.53455,0.25827 -8.30469,0.23047 -3.24215,-0.0136 -6.48385,-0.10256 -9.72461,-0.18946 -3.17473,-0.098 -6.35065,-0.10321 -9.52539,-0.19531 -2.05165,-0.0842 -4.10354,-0.17081 -6.15625,-0.22461 -2.04496,-0.006 -4.08276,-0.0883 -6.12109,-0.25 -2.39926,-0.17236 -4.80138,-0.30176 -7.20118,-0.4707 -3.0251,-0.21558 -6.02301,-0.68821 -9.0332,-1.04297 -2.16281,-0.27978 -4.33281,-0.50202 -6.50781,-0.66016 -1.38653,-0.0998 -2.77648,-0.13726 -4.16602,-0.16406 -1.84388,-0.0246 -3.68723,-0.0301 -5.53125,-0.0352 -2.22795,-0.005 -4.45758,-0.005 -6.68554,-0.006 -2.69861,0.0124 -5.39286,-0.20479 -8.08204,-0.40821 -3.1241,-0.25392 -6.21096,-0.80077 -9.3164,-1.20508 -4.04911,-0.64695 -8.10972,-1.22798 -12.15625,-1.89062 -2.25501,-0.36883 -4.4991,-0.78971 -6.76172,-1.10547 -0.56203,0.005 -1.12335,0.0549 -1.68555,0.0312 -1.27543,-0.0373 -2.55005,-0.0994 -3.82226,-0.19922 -1.34975,-0.10148 -2.70017,-0.18917 -4.05078,-0.27539 -1.14203,-0.008 -2.28396,-0.0266 -3.42579,-0.0312 z" />
    </clipPath>
    <clipPath
       clipPathUnits="userSpaceOnUse"
       id="clipPath40">
      <path
         id="path41"
         style="fill:#ff0000;fill-opacity:1;fill-rule:nonzero;stroke:none"
         d="m 168,107.50077 v 41.12695 c 2.27337,0.0356 4.54129,-0.0358 6.81055,-0.17187 2.11475,-0.14165 4.2238,-0.35014 6.33398,-0.54492 2.11928,-0.20843 4.24731,-0.27871 6.375,-0.33203 2.82034,-0.0557 5.64211,-0.0593 8.46289,-0.0684 2.94161,-0.008 5.8826,-0.0101 8.82422,-0.0117 3.3104,-0.001 6.62125,-0.002 9.93164,-0.002 3.77707,0.0563 7.54736,0.28972 11.31445,0.55273 3.92682,0.37859 7.84949,0.77136 11.78711,1.01953 4.28281,0.20053 8.5654,0.42301 12.84961,0.5918 4.43125,0.16721 8.86498,0.24836 13.29883,0.30273 4.17917,0.0304 8.35478,0.0302 12.53125,0.19336 3.59717,0.16607 7.19669,0.27055 10.79688,0.33985 3.82555,0.0648 7.6525,0.0788 11.47851,0.0937 3.09333,-0.008 6.18823,0.0486 9.28125,-0.006 1.47448,-0.0423 2.94922,-0.0712 4.42383,-0.10547 v -42.97853 z m 36.14648,108.8125 c -1.45208,0.004 -2.90028,0.0412 -4.32031,0.35938 -2.07864,0.55813 -4.17168,1.03899 -6.28906,1.42578 -2.14505,0.36894 -4.27766,0.80829 -6.42188,1.18164 -1.5894,0.25883 -3.18918,0.44485 -4.78906,0.62695 -1.53905,0.16696 -3.08627,0.23716 -4.63281,0.28906 -1.60324,0.0471 -3.20703,0.0623 -4.81055,0.0293 -1.63005,-0.089 -3.25595,-0.23689 -4.88281,-0.37109 v 32.14648 h 144.5 v -27.59375 c -2.55011,-0.055 -5.10058,-0.0823 -7.65039,-0.15625 -2.05165,-0.0842 -4.10354,-0.17081 -6.15625,-0.22461 -2.04496,-0.006 -4.08276,-0.0883 -6.12109,-0.25 -2.39926,-0.17236 -4.80138,-0.30176 -7.20118,-0.4707 -3.0251,-0.21558 -6.02301,-0.68821 -9.0332,-1.04297 -2.16281,-0.27978 -4.33281,-0.50202 -6.50781,-0.66016 -1.38653,-0.0998 -2.77648,-0.13726 -4.16602,-0.16406 -1.84388,-0.0246 -3.68723,-0.0301 -5.53125,-0.0352 -2.22795,-0.005 -4.45758,-0.005 -6.68554,-0.006 -2.69861,0.0124 -5.39286,-0.20479 -8.08204,-0.40821 -3.1241,-0.25392 -6.21096,-0.80077 -9.3164,-1.20508 -4.04911,-0.64695 -8.10972,-1.22798 -12.15625,-1.89062 -2.16254,-0.3537 -4.3162,-0.74822 -6.48438,-1.06055 -0.65416,0.0107 -1.30846,0.0138 -1.96289,-0.0137 -1.27543,-0.0373 -2.55005,-0.0994 -3.82226,-0.19922 -1.34975,-0.10148 -2.70017,-0.18917 -4.05078,-0.27539 -1.14203,-0.008 -2.28396,-0.0266 -3.42579,-0.0312 z" />
    </clipPath>
  </defs>
  <sodipodi:namedview
     id="namedview3"
     pagecolor="#ffffff"
     bordercolor="#000000"
     borderopacity="0.25"
     inkscape:showpageshadow="2"
     inkscape:pageopacity="0.0"
     inkscape:pagecheckerboard="0"
     inkscape:deskcolor="#d1d1d1"
     inkscape:zoom="3.5318182"
     inkscape:cx="109.85843"
     inkscape:cy="114.2471"
     inkscape:window-width="1920"
     inkscape:window-height="991"
     inkscape:window-x="-9"
     inkscape:window-y="-9"
     inkscape:window-maximized="1"
     inkscape:current-layer="svg3" />
  <g
     transform="translate(-130,-70.19999)"
     id="g3">
    <g
       data-paper-data="{&quot;isPaintingLayer&quot;:true}"
       fill="none"
       fill-rule="nonzero"
       stroke="#f1c232"
       stroke-width="7"
       stroke-linecap="butt"
       stroke-linejoin="miter"
       stroke-miterlimit="10"
       stroke-dasharray=""
       stroke-dashoffset="0"
       style="mix-blend-mode: normal"
       id="g2">
      <path
         d="M133.5,180.2c0,-58.81832 47.68167,-106.5 106.5,-106.5c58.81833,0 106.5,47.68168 106.5,106.5c0,58.81833 -47.68167,106.5 -106.5,106.5c-58.81833,0 -106.5,-47.68167 -106.5,-106.5z"
         id="path1"
         clip-path="url(#clipPath37)" />
      <path
         d="M171.5,179.75c0,-37.96957 30.78043,-68.75 68.75,-68.75c37.96958,0 68.75,30.78043 68.75,68.75c0,37.96957 -30.78042,68.75 -68.75,68.75c-37.96957,0 -68.75,-30.78043 -68.75,-68.75z"
         id="path2"
         clip-path="url(#clipPath40)" />
    </g>
  </g>
  <text
     xml:space="preserve"
     style="font-style:normal;font-variant:normal;font-weight:normal;font-stretch:normal;font-size:74.1465px;font-family:'JetBrainsMono Nerd Font';-inkscape-font-specification:'JetBrainsMono Nerd Font';text-align:start;writing-mode:lr-tb;direction:ltr;text-anchor:start;fill:#000000;stroke-width:6.17888"
     x="-5.3216639"
     y="126.41975"
     id="text3"
     transform="scale(0.86354712,1.1580144)"><tspan
       sodipodi:role="line"
       id="tspan3"
       x="-5.3216639"
       y="126.41975"
       style="stroke-width:6.17888">SkyUOI</tspan></text>
</svg>
